<svg xmlns="http://www.w3.org/2000/svg" fill="none" viewBox="0 0 112 87">
  <path fill="url(#a)" d="M37.7635 34.9205c-.2216-.9035-.571-1.6961-1.0483-2.3779-.4773-.6988-1.0739-1.2869-1.7898-1.7642-.6988-.4943-1.517-.8608-2.4545-1.0994-.9205-.2557-1.9347-.3835-3.0426-.3835-2.3864 0-4.4233.571-6.1108 1.713-1.6705 1.1421-2.9489 2.787-3.8353 4.9347-.8693 2.1477-1.3039 4.7386-1.3039 7.7727 0 3.0682.4176 5.6932 1.2528 7.875.8352 2.1818 2.0796 3.8523 3.733 5.0114s3.7073 1.7386 6.1619 1.7386c2.1648 0 3.9631-.3153 5.3949-.946 1.4488-.6307 2.5312-1.5256 3.2471-2.6847.7159-1.1591 1.0739-2.5227 1.0739-4.0909l2.4546.2557h-11.966V40.75h23.216v7.2614c0 4.7727-1.0143 8.8551-3.0427 12.2471-2.0113 3.375-4.7897 5.9659-8.3352 7.7727-3.5284 1.7898-7.5767 2.6847-12.1449 2.6847-5.0966 0-9.571-1.0824-13.4233-3.2471-3.8522-2.1648-6.86077-5.2501-9.02554-9.2557-2.14773-4.0057-3.22159-8.7699-3.22159-14.2926 0-4.3296.65625-8.1648 1.96875-11.5057 1.32954-3.3409 3.17045-6.162 5.52268-8.4631 2.3523-2.3182 5.0711-4.0653 8.1563-5.2415 3.0852-1.1932 6.392-1.7897 9.9205-1.7897 3.1022 0 5.9829.4431 8.642 1.3295 2.6761.8693 5.0369 2.1136 7.0824 3.733 2.0625 1.6022 3.7244 3.5028 4.9858 5.7017 1.2613 2.1988 2.0284 4.6108 2.3011 7.2358H37.7635Zm55.6172 0c-.2216-.9035-.571-1.6961-1.0483-2.3779-.4773-.6988-1.0739-1.2869-1.7898-1.7642-.6988-.4943-1.517-.8608-2.4545-1.0994-.9205-.2557-1.9347-.3835-3.0426-.3835-2.3864 0-4.4233.571-6.1108 1.713-1.6705 1.1421-2.9489 2.787-3.8353 4.9347-.8693 2.1477-1.3039 4.7386-1.3039 7.7727 0 3.0682.4176 5.6932 1.2528 7.875.8352 2.1818 2.0795 3.8523 3.7329 5.0114 1.6535 1.1591 3.7074 1.7386 6.162 1.7386 2.1648 0 3.9631-.3153 5.3949-.946 1.4488-.6307 2.5312-1.5256 3.2471-2.6847.7159-1.1591 1.0739-2.5227 1.0739-4.0909l2.4545.2557H85.1477V40.75h23.2163v7.2614c0 4.7727-1.015 8.8551-3.043 12.2471-2.011 3.375-4.79 5.9659-8.3352 7.7727-3.5284 1.7898-7.5767 2.6847-12.1449 2.6847-5.0966 0-9.571-1.0824-13.4233-3.2471-3.8523-2.1648-6.8608-5.2501-9.0256-9.2557-2.1477-4.0057-3.2215-8.7699-3.2215-14.2926 0-4.3296.6562-8.1648 1.9687-11.5057 1.3296-3.3409 3.1705-6.162 5.5227-8.4631 2.3523-2.3182 5.0711-4.0653 8.1563-5.2415 3.0852-1.1932 6.392-1.7897 9.9204-1.7897 3.1023 0 5.983.4431 8.6421 1.3295 2.6761.8693 5.0369 2.1136 7.0823 3.733 2.063 1.6022 3.725 3.5028 4.986 5.7017 1.261 2.1988 2.028 4.6108 2.301 7.2358H93.3807Z"/>
  <defs>
    <linearGradient id="a" x1="0" x2="112" y1="0" y2="87" gradientUnits="userSpaceOnUse">
      <stop stop-color="#FCCB90"/>
      <stop offset="1" stop-color="#D57EEB"/>
    </linearGradient>
  </defs>
</svg>
